<svg width="26" height="26" viewBox="0 0 26 26" fill="none" xmlns="http://www.w3.org/2000/svg">
<path fill-rule="evenodd" clip-rule="evenodd" d="M16.25 20.5833C16.2502 21.1299 16.0437 21.6564 15.6721 22.0572C15.3004 22.4581 14.7909 22.7036 14.2459 22.7446L14.0834 22.75H11.9167C11.3701 22.7502 10.8436 22.5437 10.4428 22.172C10.0419 21.8004 9.79643 21.2909 9.75544 20.7458L9.75002 20.5833H16.25ZM13 2.16666C14.9662 2.16662 16.8556 2.93029 18.2696 4.29657C19.6836 5.66285 20.5116 7.52492 20.579 9.48999L20.5834 9.74999V13.8277L22.5572 17.7753C22.6433 17.9476 22.6864 18.1381 22.6828 18.3307C22.6792 18.5232 22.629 18.7121 22.5364 18.8809C22.4439 19.0498 22.3118 19.1938 22.1515 19.3005C21.9911 19.4072 21.8073 19.4734 21.6158 19.4935L21.4912 19.5H4.50885C4.3162 19.5 4.1264 19.4534 3.95573 19.364C3.78505 19.2747 3.63859 19.1452 3.52889 18.9869C3.41919 18.8285 3.34952 18.6459 3.32586 18.4547C3.30219 18.2635 3.32524 18.0694 3.39302 17.8891L3.44285 17.7753L5.41669 13.8277V9.74999C5.41669 7.73876 6.21564 5.80991 7.63779 4.38776C9.05994 2.96561 10.9888 2.16666 13 2.16666ZM13 4.33332C11.6042 4.3334 10.2623 4.87233 9.25409 5.8377C8.24593 6.80308 7.64935 8.12039 7.58877 9.51491L7.58335 9.74999V13.8277C7.58336 14.0963 7.5334 14.3627 7.43602 14.6131L7.35477 14.7972L6.08727 17.3333H19.9139L18.6464 14.7962C18.5261 14.556 18.4515 14.2955 18.4264 14.0281L18.4167 13.8277V9.74999C18.4167 8.3134 17.846 6.93565 16.8302 5.91983C15.8144 4.90401 14.4366 4.33332 13 4.33332Z" fill="black"/>
</svg>
